<?xml version="1.0" encoding="UTF-8" standalone="no"?> <svg width="24" height="24" viewBox="0 0 24 24" fill="none" xmlns="http://www.w3.org/2000/svg">
<path d="M12 22C10.0222 22 8.08879 21.4135 6.4443 20.3147C4.79981 19.2159 3.51809 17.6541 2.76121 15.8268C2.00433 13.9996 1.8063 11.9889 2.19215 10.0491C2.578 8.10929 3.53041 6.32746 4.92894 4.92894C6.32746 3.53041 8.10929 2.578 10.0491 2.19215C11.9889 1.8063 13.9996 2.00433 15.8268 2.76121C17.6541 3.51809 19.2159 4.79981 20.3147 6.4443C21.4135 8.08879 22 10.0222 22 12C21.9971 14.6513 20.9426 17.1931 19.0679 19.0679C17.1931 20.9426 14.6513 21.9971 12 22V22ZM12 13.414L13.293 14.707C13.4805 14.8945 13.7348 14.9998 14 14.9998C14.2652 14.9998 14.5195 14.8945 14.707 14.707C14.8945 14.5195 14.9998 14.2652 14.9998 14C14.9998 13.7348 14.8945 13.4805 14.707 13.293L13.414 12L14.707 10.707C14.8025 10.6148 14.8787 10.5044 14.9311 10.3824C14.9835 10.2604 15.0111 10.1292 15.0123 9.99641C15.0134 9.86363 14.9881 9.73195 14.9378 9.60905C14.8875 9.48615 14.8133 9.3745 14.7194 9.28061C14.6255 9.18672 14.5139 9.11246 14.391 9.06218C14.2681 9.0119 14.1364 8.9866 14.0036 8.98775C13.8708 8.98891 13.7396 9.01649 13.6176 9.0689C13.4956 9.12131 13.3853 9.19749 13.293 9.293L12 10.586L10.707 9.293C10.5184 9.11085 10.2658 9.01005 10.0036 9.01233C9.74141 9.01461 9.49059 9.11978 9.30519 9.30519C9.11978 9.49059 9.01461 9.74141 9.01233 10.0036C9.01005 10.2658 9.11085 10.5184 9.293 10.707L10.586 12L9.293 13.293C9.1532 13.4329 9.05799 13.611 9.01942 13.805C8.98085 13.9989 9.00066 14.2 9.07633 14.3827C9.152 14.5654 9.28014 14.7215 9.44455 14.8314C9.60896 14.9413 9.80225 15 10 15C10.1313 15.0007 10.2615 14.9752 10.3828 14.925C10.5042 14.8749 10.6144 14.8011 10.707 14.708L12 13.415V13.414Z" fill="black"/>
</svg>
